# xmcd
#
# Track frame offsets: 
#        150
#        14780
#        29077
#        45957
#        61492
#        73417
#        86949
#        101750
#        116086
#        131588
#        153448
#        164635
#
# Disc length: 2323 seconds
#
# Revision: 0
# Processed by: cddbd v1.5.2PL0 Copyright (c) Steve Scherf et al.
# Submitted via: ExactAudioCopy v0.99pb4
#
DISCID=b509110c
DTITLE=Various Artist - Bose Private Performances Collection: Wandering Eyes
DYEAR=1900
DGENRE=Country
TTITLE0=Rosanne Cash - My Baby thinks He's a Train
TTITLE1=Ronnie McDowell - Wandering Eyes
TTITLE2=Gatlin Brothers - Denver
TTITLE3=Johnny Duncan - Thinking of a Rendezvous
TTITLE4=Tanya Tucker - You Know Just What I'd Do
TTITLE5=Dottie West - A Lesson In Leaving
TTITLE6=Glen Campbell - Rhinestone Cowboy
TTITLE7=Lacy Dalton - 16th Avenue
TTITLE8=Tammy Wynette - Even the Strong Get Lonely Sometimes
TTITLE9=Lynn Anderson - Outlaw Is Just a State of Mind
TTITLE10=Donna Fargo - Superman
TTITLE11=Tom T. Hall - Fox On the Run
EXTD=
EXTT0=
EXTT1=
EXTT2=
EXTT3=
EXTT4=
EXTT5=
EXTT6=
EXTT7=
EXTT8=
EXTT9=
EXTT10=
EXTT11=
PLAYORDER=
